<svg xmlns="http://www.w3.org/2000/svg" viewBox="0 0 224.7 248.9"><defs><style>.cls-1{fill:none;stroke:#fff;stroke-linecap:round;stroke-linejoin:round;stroke-width:5px;}.cls-2{fill:#fff;}</style></defs><g id="OBJECTS"><path class="cls-1" d="M275,162.79a80.85,80.85,0,0,1,51.18,52.63" transform="translate(-145.9 -118.3)"/><path class="cls-1" d="M281.82,141.63a103.16,103.16,0,0,1,65.57,67.05" transform="translate(-145.9 -118.3)"/><path class="cls-1" d="M289.13,120.8a123.72,123.72,0,0,1,79,80.46" transform="translate(-145.9 -118.3)"/><path class="cls-2" d="M222,367.2H145.9V191.53H222a76.13,76.13,0,0,1,0,152.25h-52.7V215H181V332.07h41a64.42,64.42,0,0,0,0-128.83H157.61V355.49H222a87.84,87.84,0,1,0,0-175.67H145.9V168.11H222a99.55,99.55,0,1,1,0,199.09Z" transform="translate(-145.9 -118.3)"/></g></svg>